<svg xmlns="http://www.w3.org/2000/svg" class="iconAboveSlogan" viewBox="0 0 877.819 197"><g id="c1b05ad5-c768-4a61-b911-db5fc5ab1ab3" fill="#fff"><path d="M7.45 13.02L4.28 8.37L2.63 10.05L2.63 13.02L1.51 13.02L1.51 3.78L2.63 3.78L2.63 8.54L7.28 3.78L8.75 3.78L5.07 7.55L8.79 13.02L7.45 13.02ZM13.89 5.88L13.89 5.88Q15.08 5.88 15.85 6.57L15.85 6.57L15.85 6.57Q16.62 7.25 16.62 8.54L16.62 8.54L16.62 13.02L15.50 13.02L15.50 8.93L15.50 8.93Q15.50 7.84 15.03 7.35L15.03 7.35L15.03 7.35Q14.56 6.86 13.78 6.86L13.78 6.86L13.78 6.86Q13.22 6.86 12.73 7.10L12.73 7.10L12.73 7.10Q12.24 7.35 11.92 7.90L11.92 7.90L11.92 7.90Q11.61 8.46 11.61 9.30L11.61 9.30L11.61 13.02L10.49 13.02L10.49 6.02L11.47 6.02L11.54 7.11L11.54 7.11Q11.89 6.48 12.50 6.18L12.50 6.18L12.50 6.18Q13.12 5.88 13.89 5.88L13.89 5.88ZM22.11 5.88L22.11 5.88Q23.69 5.88 24.59 6.85L24.59 6.85L24.59 6.85Q25.49 7.81 25.49 9.52L25.49 9.52L25.49 9.52Q25.49 11.23 24.59 12.19L24.59 12.19L24.59 12.19Q23.69 13.16 22.11 13.16L22.11 13.16L22.11 13.16Q20.52 13.16 19.62 12.19L19.62 12.19L19.62 12.19Q18.72 11.23 18.72 9.52L18.72 9.52L18.72 9.52Q18.72 7.81 19.62 6.85L19.62 6.85L19.62 6.85Q20.52 5.88 22.11 5.88L22.11 5.88ZM22.11 6.85L22.11 6.85Q21.04 6.85 20.44 7.56L20.44 7.56L20.44 7.56Q19.84 8.27 19.84 9.52L19.84 9.52L19.84 9.52Q19.84 10.77 20.44 11.48L20.44 11.48L20.44 11.48Q21.04 12.19 22.11 12.19L22.11 12.19L22.11 12.19Q23.17 12.19 23.77 11.48L23.77 11.48L23.77 11.48Q24.37 10.77 24.37 9.52L24.37 9.52L24.37 9.52Q24.37 8.27 23.77 7.56L23.77 7.56L23.77 7.56Q23.17 6.85 22.11 6.85L22.11 6.85ZM36.36 6.02L37.60 6.02L35.17 13.02L34.05 13.02L32.07 7.45L30.21 13.02L29.09 13.02L26.66 6.02L27.90 6.02L29.67 11.72L31.57 6.02L32.69 6.02L34.59 11.72L36.36 6.02ZM50.18 3.78L46.87 9.41L46.87 13.02L45.75 13.02L45.75 9.41L42.45 3.78L43.78 3.78L46.31 8.26L48.85 3.78L50.18 3.78ZM53.56 5.88L53.56 5.88Q55.15 5.88 56.05 6.85L56.05 6.85L56.05 6.85Q56.95 7.81 56.95 9.52L56.95 9.52L56.95 9.52Q56.95 11.23 56.05 12.19L56.05 12.19L56.05 12.19Q55.15 13.16 53.56 13.16L53.56 13.16L53.56 13.16Q51.98 13.16 51.08 12.19L51.08 12.19L51.08 12.19Q50.18 11.23 50.18 9.52L50.18 9.52L50.18 9.52Q50.18 7.81 51.08 6.85L51.08 6.85L51.08 6.85Q51.98 5.88 53.56 5.88L53.56 5.88ZM53.56 6.85L53.56 6.85Q52.50 6.85 51.90 7.56L51.90 7.56L51.90 7.56Q51.30 8.27 51.30 9.52L51.30 9.52L51.30 9.52Q51.30 10.77 51.90 11.48L51.90 11.48L51.90 11.48Q52.50 12.19 53.56 12.19L53.56 12.19L53.56 12.19Q54.63 12.19 55.23 11.48L55.23 11.48L55.23 11.48Q55.83 10.77 55.83 9.52L55.83 9.52L55.83 9.52Q55.83 8.27 55.23 7.56L55.23 7.56L55.23 7.56Q54.63 6.85 53.56 6.85L53.56 6.85ZM64.06 6.02L65.18 6.02L65.18 13.02L64.20 13.02L64.13 11.96L64.13 11.96Q63.43 13.16 61.63 13.16L61.63 13.16L61.63 13.16Q60.49 13.16 59.77 12.53L59.77 12.53L59.77 12.53Q59.05 11.90 59.05 10.60L59.05 10.60L59.05 6.02L60.17 6.02L60.17 10.30L60.17 10.30Q60.17 11.33 60.59 11.75L60.59 11.75L60.59 11.75Q61.01 12.18 61.82 12.18L61.82 12.18L61.82 12.18Q62.79 12.18 63.43 11.59L63.43 11.59L63.43 11.59Q64.06 11.00 64.06 9.83L64.06 9.83L64.06 6.02ZM71.09 5.88L71.09 5.88Q71.60 5.88 71.86 6.02L71.86 6.02L71.64 7.11L71.64 7.11Q71.30 6.93 70.76 6.93L70.76 6.93L70.76 6.93Q70.31 6.93 69.88 7.19L69.88 7.19L69.88 7.19Q69.45 7.45 69.18 7.97L69.18 7.97L69.18 7.97Q68.91 8.50 68.91 9.24L68.91 9.24L68.91 13.02L67.79 13.02L67.79 6.02L68.70 6.02L68.85 7.17L68.85 7.17Q69.44 5.88 71.09 5.88L71.09 5.88ZM81.42 3.78L81.42 3.78Q82.82 3.78 83.68 4.54L83.68 4.54L83.68 4.54Q84.53 5.31 84.53 6.59L84.53 6.59L84.53 6.59Q84.53 7.88 83.68 8.64L83.68 8.64L83.68 8.64Q82.82 9.41 81.42 9.41L81.42 9.41L79.28 9.41L79.28 13.02L78.16 13.02L78.16 3.78L81.42 3.78ZM81.26 8.36L81.26 8.36Q82.33 8.36 82.84 7.92L82.84 7.92L82.84 7.92Q83.36 7.48 83.36 6.59L83.36 6.59L83.36 6.59Q83.36 5.71 82.84 5.27L82.84 5.27L82.84 5.27Q82.33 4.83 81.26 4.83L81.26 4.83L79.28 4.83L79.28 8.36L81.26 8.36ZM92.23 12.21L92.23 12.21Q92.51 12.21 92.79 12.14L92.79 12.14L92.72 13.02L92.72 13.02Q92.33 13.16 91.88 13.16L91.88 13.16L91.88 13.16Q91.34 13.16 91.02 12.92L91.02 12.92L91.02 12.92Q90.71 12.68 90.62 12.12L90.62 12.12L90.62 12.12Q90.30 12.61 89.68 12.89L89.68 12.89L89.68 12.89Q89.05 13.16 88.37 13.16L88.37 13.16L88.37 13.16Q87.33 13.16 86.66 12.68L86.66 12.68L86.66 12.68Q85.99 12.19 85.99 11.28L85.99 11.28L85.99 11.28Q85.99 10.49 86.69 9.90L86.69 9.90L86.69 9.90Q87.39 9.32 88.72 9.10L88.72 9.10L90.58 8.79L90.58 8.40L90.58 8.40Q90.58 7.70 90.15 7.28L90.15 7.28L90.15 7.28Q89.71 6.86 88.94 6.86L88.94 6.86L88.94 6.86Q88.24 6.86 87.73 7.20L87.73 7.20L87.73 7.20Q87.22 7.53 86.94 8.19L86.94 8.19L86.11 7.59L86.11 7.59Q86.39 6.80 87.16 6.34L87.16 6.34L87.16 6.34Q87.92 5.88 88.94 5.88L88.94 5.88L88.94 5.88Q90.19 5.88 90.94 6.48L90.94 6.48L90.94 6.48Q91.70 7.08 91.70 8.26L91.70 8.26L91.70 11.70L91.70 11.70Q91.70 11.96 91.83 12.08L91.83 12.08L91.83 12.08Q91.95 12.21 92.23 12.21L92.23 12.21ZM88.42 12.18L88.42 12.18Q89.31 12.18 89.94 11.76L89.94 11.76L89.94 11.76Q90.58 11.34 90.58 10.67L90.58 10.67L90.58 9.70L89.01 10.00L89.01 10.00Q88.07 10.16 87.61 10.48L87.61 10.48L87.61 10.48Q87.15 10.79 87.15 11.28L87.15 11.28L87.15 11.28Q87.15 11.72 87.49 11.95L87.49 11.95L87.49 11.95Q87.82 12.18 88.42 12.18L88.42 12.18ZM97.72 5.88L97.72 5.88Q98.22 5.88 98.49 6.02L98.49 6.02L98.27 7.11L98.27 7.11Q97.93 6.93 97.38 6.93L97.38 6.93L97.38 6.93Q96.94 6.93 96.51 7.19L96.51 7.19L96.51 7.19Q96.08 7.45 95.81 7.97L95.81 7.97L95.81 7.97Q95.54 8.50 95.54 9.24L95.54 9.24L95.54 13.02L94.42 13.02L94.42 6.02L95.33 6.02L95.48 7.17L95.48 7.17Q96.07 5.88 97.72 5.88L97.72 5.88ZM105.08 13.02L102.73 9.56L101.25 11.05L101.25 13.02L100.13 13.02L100.13 2.80L101.25 2.80L101.25 9.65L104.87 6.02L106.27 6.02L103.54 8.75L106.44 13.02L105.08 13.02ZM108.63 4.68L108.63 4.68Q108.25 4.68 108.02 4.44L108.02 4.44L108.02 4.44Q107.79 4.21 107.79 3.84L107.79 3.84L107.79 3.84Q107.79 3.46 108.02 3.23L108.02 3.23L108.02 3.23Q108.25 3.00 108.63 3.00L108.63 3.00L108.63 3.00Q109.00 3.00 109.24 3.23L109.24 3.23L109.24 3.23Q109.47 3.46 109.47 3.84L109.47 3.84L109.47 3.84Q109.47 4.21 109.24 4.44L109.24 4.44L109.24 4.44Q109.00 4.68 108.63 4.68L108.63 4.68ZM109.19 6.02L109.19 13.02L108.07 13.02L108.07 6.02L109.19 6.02ZM115.19 5.88L115.19 5.88Q116.38 5.88 117.15 6.57L117.15 6.57L117.15 6.57Q117.92 7.25 117.92 8.54L117.92 8.54L117.92 13.02L116.80 13.02L116.80 8.93L116.80 8.93Q116.80 7.84 116.33 7.35L116.33 7.35L116.33 7.35Q115.86 6.86 115.08 6.86L115.08 6.86L115.08 6.86Q114.52 6.86 114.03 7.10L114.03 7.10L114.03 7.10Q113.54 7.35 113.23 7.90L113.23 7.90L113.23 7.90Q112.91 8.46 112.91 9.30L112.91 9.30L112.91 13.02L111.79 13.02L111.79 6.02L112.77 6.02L112.84 7.11L112.84 7.11Q113.19 6.48 113.81 6.18L113.81 6.18L113.81 6.18Q114.42 5.88 115.19 5.88L115.19 5.88ZM122.84 13.16L122.84 13.16Q121.83 13.16 121.02 12.76L121.02 12.76L121.02 12.76Q120.20 12.36 119.83 11.58L119.83 11.58L120.74 10.95L120.74 10.95Q120.97 11.56 121.56 11.87L121.56 11.87L121.56 11.87Q122.15 12.18 122.95 12.18L122.95 12.18L122.95 12.18Q123.77 12.18 124.21 11.89L124.21 11.89L124.21 11.89Q124.64 11.59 124.64 11.14L124.64 11.14L124.64 11.14Q124.64 10.74 124.24 10.49L124.24 10.49L124.24 10.49Q123.83 10.25 122.81 10.07L122.81 10.07L122.81 10.07Q121.80 9.88 121.21 9.63L121.21 9.63L121.21 9.63Q120.62 9.37 120.36 8.97L120.36 8.97L120.36 8.97Q120.09 8.57 120.09 7.98L120.09 7.98L120.09 7.98Q120.09 7.41 120.43 6.93L120.43 6.93L120.43 6.93Q120.76 6.45 121.39 6.17L121.39 6.17L121.39 6.17Q122.02 5.88 122.85 5.88L122.85 5.88L122.85 5.88Q123.97 5.88 124.65 6.29L124.65 6.29L124.65 6.29Q125.33 6.71 125.62 7.56L125.62 7.56L124.67 8.12L124.67 8.12Q124.45 7.45 123.99 7.15L123.99 7.15L123.99 7.15Q123.54 6.86 122.85 6.86L122.85 6.86L122.85 6.86Q122.16 6.86 121.69 7.17L121.69 7.17L121.69 7.17Q121.21 7.48 121.21 7.88L121.21 7.88L121.21 7.88Q121.21 8.34 121.63 8.60L121.63 8.60L121.63 8.60Q122.04 8.85 123.10 9.03L123.10 9.03L123.10 9.03Q124.56 9.27 125.16 9.74L125.16 9.74L125.16 9.74Q125.76 10.22 125.76 11.09L125.76 11.09L125.76 11.09Q125.76 11.69 125.41 12.16L125.41 12.16L125.41 12.16Q125.05 12.63 124.38 12.89L124.38 12.89L124.38 12.89Q123.72 13.16 122.84 13.16L122.84 13.16ZM130.79 5.88L130.79 5.88Q132.37 5.88 133.27 6.85L133.27 6.85L133.27 6.85Q134.18 7.81 134.18 9.52L134.18 9.52L134.18 9.52Q134.18 11.23 133.27 12.19L133.27 12.19L133.27 12.19Q132.37 13.16 130.79 13.16L130.79 13.16L130.79 13.16Q129.21 13.16 128.30 12.19L128.30 12.19L128.30 12.19Q127.40 11.23 127.40 9.52L127.40 9.52L127.40 9.52Q127.40 7.81 128.30 6.85L128.30 6.85L128.30 6.85Q129.21 5.88 130.79 5.88L130.79 5.88ZM130.79 6.85L130.79 6.85Q129.72 6.85 129.12 7.56L129.12 7.56L129.12 7.56Q128.52 8.27 128.52 9.52L128.52 9.52L128.52 9.52Q128.52 10.77 129.12 11.48L129.12 11.48L129.12 11.48Q129.72 12.19 130.79 12.19L130.79 12.19L130.79 12.19Q131.85 12.19 132.45 11.48L132.45 11.48L132.45 11.48Q133.06 10.77 133.06 9.52L133.06 9.52L133.06 9.52Q133.06 8.27 132.45 7.56L132.45 7.56L132.45 7.56Q131.85 6.85 130.79 6.85L130.79 6.85ZM139.75 5.88L139.75 5.88Q140.94 5.88 141.71 6.57L141.71 6.57L141.71 6.57Q142.48 7.25 142.48 8.54L142.48 8.54L142.48 13.02L141.36 13.02L141.36 8.93L141.36 8.93Q141.36 7.84 140.89 7.35L140.89 7.35L140.89 7.35Q140.42 6.86 139.64 6.86L139.64 6.86L139.64 6.86Q139.08 6.86 138.59 7.10L138.59 7.10L138.59 7.10Q138.10 7.35 137.78 7.90L137.78 7.90L137.78 7.90Q137.47 8.46 137.47 9.30L137.47 9.30L137.47 13.02L136.35 13.02L136.35 6.02L137.33 6.02L137.40 7.11L137.40 7.11Q137.75 6.48 138.36 6.18L138.36 6.18L138.36 6.18Q138.98 5.88 139.75 5.88L139.75 5.88ZM145.75 3.36L145.39 6.82L144.52 6.82L144.52 3.36L145.75 3.36ZM150.15 13.16L150.15 13.16Q149.14 13.16 148.33 12.76L148.33 12.76L148.33 12.76Q147.52 12.36 147.14 11.58L147.14 11.58L148.05 10.95L148.05 10.95Q148.29 11.56 148.88 11.87L148.88 11.87L148.88 11.87Q149.46 12.18 150.26 12.18L150.26 12.18L150.26 12.18Q151.09 12.18 151.52 11.89L151.52 11.89L151.52 11.89Q151.96 11.59 151.96 11.14L151.96 11.14L151.96 11.14Q151.96 10.74 151.55 10.49L151.55 10.49L151.55 10.49Q151.14 10.25 150.12 10.07L150.12 10.07L150.12 10.07Q149.11 9.88 148.53 9.63L148.53 9.63L148.53 9.63Q147.94 9.37 147.67 8.97L147.67 8.97L147.67 8.97Q147.41 8.57 147.41 7.98L147.41 7.98L147.41 7.98Q147.41 7.41 147.74 6.93L147.74 6.93L147.74 6.93Q148.08 6.45 148.71 6.17L148.71 6.17L148.71 6.17Q149.34 5.88 150.16 5.88L150.16 5.88L150.16 5.88Q151.28 5.88 151.96 6.29L151.96 6.29L151.96 6.29Q152.64 6.71 152.94 7.56L152.94 7.56L151.98 8.12L151.98 8.12Q151.76 7.45 151.31 7.15L151.31 7.15L151.31 7.15Q150.85 6.86 150.16 6.86L150.16 6.86L150.16 6.86Q149.48 6.86 149.00 7.17L149.00 7.17L149.00 7.17Q148.53 7.48 148.53 7.88L148.53 7.88L148.53 7.88Q148.53 8.34 148.94 8.60L148.94 8.60L148.94 8.60Q149.35 8.85 150.42 9.03L150.42 9.03L150.42 9.03Q151.87 9.27 152.47 9.74L152.47 9.74L152.47 9.74Q153.08 10.22 153.08 11.09L153.08 11.09L153.08 11.09Q153.08 11.69 152.72 12.16L152.72 12.16L152.72 12.16Q152.36 12.63 151.70 12.89L151.70 12.89L151.70 12.89Q151.03 13.16 150.15 13.16L150.15 13.16Z" transform="matrix(5.7915059834320255,0,0,5.7915059834320255,-8.745184160623921,86.78377994627218)"/></g><g id="5d0f49f2-3506-442a-9f34-3c4272bead31" fill="#D8C93B" stroke="none"><path d="M97.066 49.294H84.667c-.919 0-1.745.56-2.085 1.412l-1.541 3.857-8.542-21.378a2.243 2.243 0 0 0-4.169 0l-6.436 16.109H53.06c2.014-5.625 2.044-11.745-.042-16.634-1.81-4.24-4.981-7.124-9.169-8.34-1.649-.478-3.265-.721-4.804-.721-5.719 0-9.354 3.237-11.41 5.988-2.057-2.751-5.691-5.988-11.411-5.988-1.539 0-3.155.243-4.804.722-4.188 1.215-7.358 4.1-9.168 8.339C-.249 38.521.281 46.153 3.638 52.579c5.525 10.572 21.96 22.861 22.657 23.38a2.244 2.244 0 0 0 2.678 0c.671-.499 15.909-11.895 21.982-22.175h12.46c.918 0 1.744-.56 2.085-1.412l4.915-12.303 8.542 21.379a2.245 2.245 0 0 0 4.17 0l3.061-7.664h10.879a2.245 2.245 0 0 0-.001-4.49zM27.634 71.325C23.635 68.192 11.806 58.516 7.617 50.5 4.91 45.316 4.425 39.006 6.381 34.422c.881-2.064 2.688-4.744 6.291-5.791 1.242-.36 2.437-.543 3.552-.543 6.129 0 8.861 5.655 9.347 6.789a2.247 2.247 0 0 0 4.128 0c.485-1.134 3.217-6.789 9.346-6.789 1.115 0 2.31.183 3.551.543 3.604 1.047 5.411 3.727 6.291 5.791 1.958 4.583 1.472 10.894-1.235 16.077-4.19 8.017-16.019 17.693-20.018 20.826z" transform="matrix(1.7044395766729281,0,0,1.7044395766729281,354.4666895949124,-39.624066194751435)"/></g><g id="5c3b4e69-d80a-4c96-ae00-fd28031a8a2a" fill="#fff"><path d="M4.93 7.81L8.81 2.21L7.53 2.21L4.40 6.72L1.26 2.21L-0.01 2.21L3.88 7.81L3.88 11.48L4.93 11.48ZM20.55 2.10C17.74 2.10 15.85 4.21 15.85 6.85C15.85 9.48 17.74 11.59 20.55 11.59C23.37 11.59 25.26 9.48 25.26 6.85C25.26 4.21 23.37 2.10 20.55 2.10ZM20.55 10.57C18.30 10.57 16.90 8.93 16.90 6.85C16.90 4.76 18.30 3.12 20.55 3.12C22.81 3.12 24.21 4.76 24.21 6.85C24.21 8.93 22.81 10.57 20.55 10.57ZM40.66 2.21L40.66 7.52C40.66 9.67 39.23 10.57 37.76 10.57C36.29 10.57 34.87 9.67 34.87 7.52L34.87 2.21L33.82 2.21L33.82 7.49C33.82 9.95 35.45 11.59 37.76 11.59C40.08 11.59 41.71 9.94 41.71 7.49L41.71 2.21ZM64.75 2.21L60.84 2.21L60.84 11.48L64.75 11.48C66.96 11.48 69.01 9.74 69.01 6.85C69.01 3.95 66.96 2.21 64.75 2.21ZM64.71 10.49L61.89 10.49L61.89 3.21L64.71 3.21C66.68 3.21 67.96 4.86 67.96 6.85C67.96 8.83 66.68 10.49 64.71 10.49ZM84.52 3.22L84.52 2.21L77.70 2.21L77.70 11.48L84.52 11.48L84.52 10.47L78.75 10.47L78.75 7.35L83.90 7.35L83.90 6.33L78.75 6.33L78.75 3.22ZM93.72 4.65C93.72 4.03 94.08 3.08 96.18 3.08C97.87 3.08 98.66 3.82 98.77 4.75L99.85 4.75C99.76 3.36 98.64 2.10 96.18 2.10C93.86 2.10 92.69 3.15 92.69 4.66C92.69 7.84 99.04 6.69 99.04 8.96C99.04 10.05 98.06 10.60 96.49 10.60C94.88 10.60 93.58 10.05 93.51 8.71L92.41 8.71C92.55 10.37 93.67 11.59 96.42 11.59C98.70 11.59 100.09 10.64 100.09 8.92C100.09 5.68 93.72 6.80 93.72 4.65ZM115.53 3.22L115.53 2.21L108.71 2.21L108.71 11.48L115.53 11.48L115.53 10.47L109.76 10.47L109.76 7.35L114.91 7.35L114.91 6.33L109.76 6.33L109.76 3.22ZM125.27 7.92L128.49 7.92L130.73 11.48L131.98 11.48L129.54 7.74C130.58 7.50 131.78 6.90 131.78 5.11C131.78 3.35 130.56 2.21 128.66 2.21L124.22 2.21L124.22 11.48L125.27 11.48ZM125.27 3.21L128.53 3.21C129.85 3.21 130.73 3.93 130.73 5.11C130.73 6.55 129.47 6.93 128.48 6.93L125.27 6.93ZM147.06 2.21L143.85 10.29L140.64 2.21L139.50 2.21L143.25 11.48L144.45 11.48L148.20 2.21ZM163.20 3.22L163.20 2.21L156.38 2.21L156.38 11.48L163.20 11.48L163.20 10.47L157.43 10.47L157.43 7.35L162.58 7.35L162.58 6.33L157.43 6.33L157.43 3.22ZM188.45 2.21L180.94 2.21L180.94 3.22L184.17 3.22L184.17 11.48L185.22 11.48L185.22 3.22L188.45 3.22ZM200.51 2.10C197.69 2.10 195.80 4.21 195.80 6.85C195.80 9.48 197.69 11.59 200.51 11.59C203.32 11.59 205.21 9.48 205.21 6.85C205.21 4.21 203.32 2.10 200.51 2.10ZM200.51 10.57C198.25 10.57 196.85 8.93 196.85 6.85C196.85 4.76 198.25 3.12 200.51 3.12C202.76 3.12 204.16 4.76 204.16 6.85C204.16 8.93 202.76 10.57 200.51 10.57ZM231.56 2.21L230.08 2.21L224.92 7.04L224.92 2.21L223.87 2.21L223.87 11.48L224.92 11.48L224.92 8.44L226.84 6.65L230.47 11.48L231.78 11.48L227.61 5.94ZM246.79 2.21L246.79 10.01L241.07 2.21L239.85 2.21L239.85 11.48L240.90 11.48L240.90 3.65L246.62 11.48L247.84 11.48L247.84 2.21ZM261.23 2.10C258.41 2.10 256.52 4.21 256.52 6.85C256.52 9.48 258.41 11.59 261.23 11.59C264.04 11.59 265.93 9.48 265.93 6.85C265.93 4.21 264.04 2.10 261.23 2.10ZM261.23 10.57C258.97 10.57 257.57 8.93 257.57 6.85C257.57 4.76 258.97 3.12 261.23 3.12C263.48 3.12 264.88 4.76 264.88 6.85C264.88 8.93 263.48 10.57 261.23 10.57ZM280.08 3.70L282.59 11.48L283.78 11.48L286.66 2.21L285.56 2.21L283.18 10.00L280.69 2.21L279.48 2.21L276.99 10.00L274.61 2.21L273.50 2.21L276.39 11.48L277.58 11.48Z" transform="matrix(2.296591629424998,0,0,2.296591629424998,109.8309740357796,192.5281203635435)"/></g></svg>