<svg xmlns="http://www.w3.org/2000/svg" class="icon" viewBox="0 0 300 300"><rect width="300" height="300" x="0" y="0" fill="#D85A3B" class="logo-background-square"/><g id="94c204bb-0858-47ed-a056-5d8147324ef3" fill="#D8C93B" stroke="none"><path d="M97.066 49.294H84.667c-.919 0-1.745.56-2.085 1.412l-1.541 3.857-8.542-21.378a2.243 2.243 0 0 0-4.169 0l-6.436 16.109H53.06c2.014-5.625 2.044-11.745-.042-16.634-1.81-4.24-4.981-7.124-9.169-8.34-1.649-.478-3.265-.721-4.804-.721-5.719 0-9.354 3.237-11.41 5.988-2.057-2.751-5.691-5.988-11.411-5.988-1.539 0-3.155.243-4.804.722-4.188 1.215-7.358 4.1-9.168 8.339C-.249 38.521.281 46.153 3.638 52.579c5.525 10.572 21.96 22.861 22.657 23.38a2.244 2.244 0 0 0 2.678 0c.671-.499 15.909-11.895 21.982-22.175h12.46c.918 0 1.744-.56 2.085-1.412l4.915-12.303 8.542 21.379a2.245 2.245 0 0 0 4.17 0l3.061-7.664h10.879a2.245 2.245 0 0 0-.001-4.49zM27.634 71.325C23.635 68.192 11.806 58.516 7.617 50.5 4.91 45.316 4.425 39.006 6.381 34.422c.881-2.064 2.688-4.744 6.291-5.791 1.242-.36 2.437-.543 3.552-.543 6.129 0 8.861 5.655 9.347 6.789a2.247 2.247 0 0 0 4.128 0c.485-1.134 3.217-6.789 9.346-6.789 1.115 0 2.31.183 3.551.543 3.604 1.047 5.411 3.727 6.291 5.791 1.958 4.583 1.472 10.894-1.235 16.077-4.19 8.017-16.019 17.693-20.018 20.826z" transform="matrix(2.23074231541909,0,0,2.23074231541909,38.46165565459103,38.46146737954476)"/></g></svg>